<?xml version="1.0" standalone="no"?>
<!DOCTYPE svg PUBLIC "-//W3C//DTD SVG 20010904//EN"
 "http://www.w3.org/TR/2001/REC-SVG-20010904/DTD/svg10.dtd">
<svg version="1.0" xmlns="http://www.w3.org/2000/svg"
 width="1080.000000pt" height="1080.000000pt" viewBox="0 0 1080.000000 1080.000000"
 preserveAspectRatio="xMidYMid meet">

<g transform="translate(0.000000,1080.000000) scale(0.100000,-0.100000)"
fill="#000000" stroke="none">
<path d="M5190 10780 c-25 -6 -67 -15 -95 -20 -79 -16 -222 -75 -310 -128
-136 -81 -252 -174 -455 -366 -300 -283 -502 -437 -709 -541 -250 -126 -465
-176 -886 -205 -240 -17 -496 -43 -588 -60 -206 -39 -391 -111 -506 -195 -151
-111 -239 -231 -335 -458 -40 -94 -65 -277 -86 -612 -36 -600 -44 -664 -105
-873 -86 -298 -205 -521 -393 -742 -486 -571 -578 -695 -645 -878 -53 -140
-62 -196 -62 -377 0 -186 7 -228 60 -356 75 -180 184 -336 400 -574 325 -358
398 -446 504 -613 132 -207 174 -297 222 -486 49 -190 61 -286 114 -923 44
-519 171 -774 492 -984 183 -119 365 -155 913 -179 496 -21 550 -29 830 -118
300 -95 477 -205 867 -540 443 -380 597 -478 834 -528 166 -35 411 -17 558 41
201 78 374 206 731 539 30 28 95 87 145 131 49 44 97 86 105 94 8 8 46 38 85
66 305 225 660 350 1080 380 655 46 791 66 975 142 281 115 499 360 583 653
49 169 65 310 87 775 29 596 107 870 348 1220 47 67 182 238 202 255 20 17
326 379 376 445 119 156 216 351 250 500 38 166 19 373 -51 551 -78 199 -191
352 -541 734 -487 532 -613 830 -664 1565 -42 596 -109 843 -291 1070 -131
163 -329 282 -567 340 -139 35 -204 42 -512 60 -387 21 -527 33 -665 56 -279
46 -496 136 -747 312 -122 85 -159 116 -438 352 -349 296 -508 395 -740 457
-86 23 -297 33 -370 18z m405 -250 c197 -52 405 -184 733 -464 333 -284 438
-360 637 -456 262 -127 468 -166 990 -190 510 -23 674 -56 879 -176 91 -53
222 -178 283 -269 149 -222 203 -447 243 -1010 14 -196 45 -412 81 -555 26
-105 37 -139 86 -250 78 -178 171 -315 358 -525 200 -225 225 -252 319 -360
182 -207 283 -384 336 -590 19 -72 23 -118 24 -230 1 -123 -3 -152 -27 -239
-67 -241 -172 -406 -488 -766 -263 -300 -354 -422 -433 -585 -126 -256 -163
-446 -186 -935 -24 -527 -55 -696 -162 -903 -94 -180 -228 -304 -443 -410
-232 -114 -363 -141 -850 -178 -370 -27 -585 -64 -730 -125 -117 -48 -318
-161 -395 -221 -107 -84 -161 -129 -254 -216 -420 -392 -544 -485 -757 -570
-326 -131 -651 -92 -979 118 -76 48 -232 172 -385 305 -404 351 -491 412 -712
501 -232 93 -373 116 -853 139 -421 20 -539 36 -724 96 -293 95 -520 320 -628
624 -57 159 -92 402 -118 805 -19 306 -68 542 -151 731 -42 95 -134 254 -190
327 -115 149 -160 203 -290 345 -195 215 -242 270 -319 371 -112 147 -186 291
-226 436 -15 56 -19 103 -19 235 0 151 2 173 28 260 60 203 162 371 392 641
300 352 415 504 494 652 82 153 154 376 180 557 13 88 36 390 51 680 23 430
107 674 299 873 116 120 228 189 401 245 145 47 286 69 625 97 349 29 355 29
519 57 153 25 259 56 387 113 236 103 395 220 749 551 313 293 570 446 813
485 93 14 323 3 412 -21z"/>
<path d="M5115 10425 c-123 -33 -276 -111 -393 -200 -91 -69 -134 -107 -387
-339 -282 -258 -390 -339 -584 -436 -238 -120 -486 -175 -891 -200 -382 -23
-587 -54 -746 -111 -234 -85 -419 -260 -510 -482 -69 -170 -89 -301 -109 -712
-18 -351 -33 -494 -71 -662 -82 -368 -221 -604 -635 -1078 -186 -213 -272
-331 -338 -469 -130 -268 -134 -515 -13 -768 72 -149 148 -254 347 -473 39
-44 91 -102 113 -128 23 -26 60 -68 83 -92 54 -57 189 -231 249 -320 195 -289
282 -585 315 -1070 21 -307 50 -544 80 -654 51 -189 132 -335 247 -448 104
-102 163 -140 304 -196 159 -64 307 -85 744 -107 113 -5 225 -12 250 -15 25
-2 74 -7 110 -11 93 -8 260 -41 364 -70 192 -54 375 -147 574 -291 84 -61 281
-219 302 -243 3 -3 34 -30 70 -60 36 -30 70 -60 75 -66 17 -20 204 -163 269
-206 390 -259 782 -234 1161 76 28 22 154 134 280 247 127 114 255 227 286
252 158 128 424 280 584 335 144 49 410 100 600 116 583 49 707 67 850 121
336 126 519 367 589 777 9 47 20 194 26 325 30 686 89 951 284 1278 89 150
181 270 405 529 255 295 353 442 409 616 35 106 43 157 43 270 0 214 -70 405
-226 622 -48 66 -95 120 -329 377 -262 288 -346 400 -439 586 -124 246 -171
459 -202 915 -24 347 -41 473 -86 629 -84 291 -242 483 -500 606 -177 83 -271
99 -779 130 -348 21 -459 32 -568 54 -291 61 -542 183 -832 404 -93 72 -153
121 -349 287 -131 111 -293 224 -396 275 -157 78 -230 96 -400 101 -125 4
-150 1 -230 -21z m354 -665 c129 -21 267 -82 411 -181 82 -57 127 -93 377
-304 107 -91 156 -129 263 -206 116 -84 285 -161 446 -204 130 -35 278 -52
599 -70 516 -28 693 -80 875 -255 81 -79 131 -146 171 -235 73 -161 96 -294
138 -780 11 -126 30 -277 41 -335 48 -236 170 -483 333 -675 69 -81 344 -391
385 -435 79 -83 183 -262 233 -400 21 -58 23 -82 24 -225 0 -154 -1 -163 -32
-250 -60 -173 -139 -290 -373 -560 -194 -222 -309 -378 -374 -505 -129 -250
-162 -411 -186 -910 -13 -265 -24 -365 -52 -480 -69 -278 -229 -471 -469 -571
-157 -64 -286 -86 -664 -114 -401 -29 -570 -67 -788 -177 -156 -78 -242 -142
-492 -368 -376 -340 -445 -389 -644 -458 -69 -24 -90 -26 -231 -27 -168 0
-211 9 -357 76 -103 47 -316 200 -445 321 -65 62 -300 250 -368 296 -268 179
-527 250 -975 267 -448 17 -643 55 -818 159 -182 107 -303 280 -366 520 -26
98 -46 259 -66 531 -16 223 -16 224 -46 385 -39 207 -98 355 -212 528 -74 111
-128 177 -351 426 -89 98 -187 212 -219 255 -221 293 -265 594 -127 888 61
130 165 275 335 468 298 337 413 523 485 784 41 148 58 278 70 541 17 376 35
514 86 670 85 257 294 445 577 519 104 27 264 47 557 71 402 32 553 67 767
177 154 79 249 151 553 423 235 210 322 277 428 332 74 37 206 83 267 91 61 8
172 7 234 -3z"/>
<path d="M5330 8795 c-174 -48 -285 -136 -403 -319 -30 -46 -37 -50 -107 -70
-168 -48 -257 -125 -345 -299 -69 -136 -92 -166 -174 -225 -144 -105 -174
-156 -172 -293 0 -52 11 -137 26 -211 36 -173 30 -203 -60 -298 -107 -114
-132 -291 -62 -444 25 -54 67 -99 156 -164 59 -44 97 -92 110 -139 17 -60 -3
-60 -69 0 -70 65 -102 84 -156 92 -48 8 -70 -7 -88 -60 -8 -22 -19 -41 -24
-43 -6 -2 -23 18 -38 44 -82 139 -208 281 -286 320 -73 37 -104 33 -154 -22
-24 -25 -47 -44 -51 -42 -5 1 -60 59 -122 128 -125 138 -151 164 -263 261
-175 153 -283 198 -367 154 -72 -37 -102 -217 -52 -313 27 -53 22 -72 -20 -72
-67 0 -119 -45 -119 -103 0 -39 56 -142 114 -210 31 -37 56 -68 56 -70 0 -2
-17 -9 -38 -15 -21 -6 -51 -25 -67 -42 -28 -30 -30 -36 -30 -114 0 -78 2 -84
33 -124 23 -28 55 -52 100 -73 37 -18 69 -33 71 -35 3 -3 -10 -19 -29 -37 -60
-59 -74 -121 -41 -192 54 -119 247 -183 426 -141 71 17 122 42 110 54 -4 4
-67 5 -140 3 -197 -5 -286 27 -333 119 -26 52 -22 91 12 128 37 42 73 53 180
58 55 3 115 6 131 7 27 2 33 -3 58 -53 35 -68 85 -120 143 -149 24 -12 44 -27
44 -33 0 -5 -10 -24 -22 -41 -13 -18 -23 -50 -25 -81 -4 -54 0 -64 62 -141 27
-35 28 -38 11 -50 -47 -35 -255 -44 -350 -15 -46 14 -117 77 -117 105 -1 11 3
31 7 44 l7 25 -34 -20 c-28 -17 -34 -26 -37 -60 -3 -35 3 -46 37 -85 39 -44
70 -62 161 -90 44 -14 45 -14 42 -56 -4 -53 25 -112 69 -137 23 -13 54 -20 99
-21 79 -2 90 -7 90 -46 0 -48 39 -79 99 -79 47 0 52 -3 108 -59 86 -87 146
-92 286 -21 68 35 72 28 28 -64 -37 -80 -85 -230 -107 -336 -12 -63 -15 -111
-11 -190 18 -323 145 -495 402 -546 176 -35 646 -17 885 33 41 9 129 31 195
51 171 49 165 49 219 10 44 -30 54 -33 137 -37 57 -2 120 3 174 14 91 18 135
15 245 -16 121 -35 150 -26 249 74 l64 65 -17 48 c-14 42 -14 50 -1 70 21 32
19 58 -9 102 -79 125 -266 230 -466 262 -36 5 -121 10 -190 10 -138 0 -217 14
-420 74 -151 44 -272 66 -364 66 -66 0 -68 1 -63 23 30 118 30 297 1 426 -14
64 -50 141 -66 141 -12 0 -10 -59 7 -146 8 -44 19 -130 24 -191 12 -128 0
-188 -48 -240 -26 -28 -32 -30 -161 -41 -120 -10 -260 -38 -277 -56 -22 -22
25 -20 407 15 202 19 357 0 650 -78 123 -33 151 -36 325 -43 168 -6 199 -10
263 -33 95 -34 243 -112 293 -155 85 -73 83 -135 -3 -70 -25 19 -58 39 -74 45
-71 28 -219 71 -226 67 -28 -17 15 -44 109 -68 81 -20 135 -48 188 -97 67 -62
95 -139 50 -139 -9 0 -39 24 -68 53 -53 54 -115 83 -221 102 -62 12 -40 -17
30 -38 32 -10 78 -28 102 -39 51 -25 123 -103 115 -124 -6 -15 -53 -20 -53 -5
0 19 -128 71 -191 78 -85 9 -71 -8 34 -41 87 -26 137 -57 137 -82 0 -21 -88
-18 -141 5 -75 33 -127 35 -240 11 -122 -27 -213 -24 -276 9 -48 24 -63 46
-63 90 0 21 -5 31 -15 31 -9 0 -15 -9 -15 -24 0 -34 -25 -56 -63 -56 -17 0
-68 -11 -114 -25 -211 -65 -548 -108 -833 -108 -215 0 -311 25 -402 103 -50
43 -103 125 -133 205 -95 252 -30 498 310 1175 158 315 170 336 272 462 111
138 184 199 284 239 52 20 199 46 267 47 43 1 76 23 92 62 19 45 39 34 80 -43
88 -170 194 -247 430 -313 168 -48 438 -67 614 -44 95 12 99 9 76 -50 -11 -27
-25 -80 -31 -117 -7 -37 -18 -80 -26 -95 -19 -40 -16 -56 6 -33 11 11 36 67
56 124 56 164 96 212 109 134 9 -60 7 -133 -9 -255 -53 -412 -69 -617 -62
-783 12 -258 101 -439 272 -553 102 -69 183 -94 305 -95 108 0 133 9 192 70
100 103 169 438 139 668 -7 50 -28 169 -48 265 -28 140 -35 198 -35 290 -1
113 20 230 41 230 4 0 16 -9 27 -21 34 -38 51 -41 74 -17 12 13 26 33 31 46 7
19 16 22 58 22 56 0 66 9 84 71 11 38 20 48 62 70 27 14 58 38 69 52 19 26 19
28 3 87 -19 67 -16 80 15 80 34 0 180 75 217 112 74 72 82 117 26 138 -35 13
-24 30 48 71 72 43 187 145 217 194 35 56 12 104 -52 109 -18 2 -36 4 -40 5
-15 2 -7 19 26 55 91 96 136 166 136 211 0 28 -49 65 -87 65 -28 0 -28 10 -3
83 24 67 25 89 6 126 -33 62 -124 92 -209 67 -145 -42 -302 -198 -496 -494
-60 -91 -81 -103 -81 -44 0 58 -22 82 -75 82 -40 0 -109 -28 -152 -62 -20 -16
-41 -2 -48 34 -11 51 -70 174 -110 228 -29 40 -35 56 -35 98 0 79 31 161 89
236 75 98 93 140 99 221 5 93 -19 158 -99 255 -34 41 -66 86 -71 100 -6 15 -7
75 -3 151 6 118 5 129 -16 170 -12 24 -30 55 -41 69 -18 22 -19 35 -12 155 7
144 0 175 -51 229 -76 79 -182 74 -277 -13 -68 -61 -87 -71 -140 -71 -54 0
-86 17 -193 103 -110 89 -212 147 -333 187 -89 31 -109 33 -247 37 -112 2
-164 -1 -205 -12z m415 -77 c97 -33 129 -49 278 -145 136 -88 211 -124 272
-130 61 -6 88 5 175 78 74 62 109 74 168 58 88 -24 121 -98 107 -242 -9 -100
-11 -102 -71 -75 -58 26 -190 35 -274 20 -30 -6 -57 -9 -59 -7 -2 2 23 36 55
76 109 134 220 188 285 140 48 -35 49 -14 2 30 -32 29 -51 39 -76 39 -51 0
-133 -56 -205 -140 -118 -137 -164 -180 -230 -212 -121 -60 -211 -38 -319 76
-34 36 -85 77 -115 92 -46 25 -65 28 -143 29 -80 0 -97 -3 -155 -31 -36 -17
-85 -50 -109 -73 -24 -22 -44 -41 -45 -41 -1 0 -21 18 -44 39 -45 43 -121 77
-147 67 -27 -10 -11 -30 47 -58 118 -56 160 -146 166 -354 3 -112 1 -142 -18
-210 -53 -189 -169 -340 -363 -471 -92 -63 -136 -86 -283 -147 -133 -56 -192
-107 -225 -195 -22 -59 -30 -140 -15 -141 5 -1 17 23 26 52 47 150 99 198 298
273 108 40 197 88 282 151 33 24 64 44 69 44 16 0 31 -61 31 -122 0 -117 -53
-176 -250 -274 -103 -51 -155 -88 -185 -132 -25 -37 -33 -96 -15 -107 6 -3 -2
-17 -18 -30 -15 -12 -38 -44 -51 -70 -21 -42 -23 -57 -19 -155 5 -154 24 -165
30 -18 7 177 18 190 216 274 47 19 82 56 82 85 0 29 -17 23 -55 -20 -25 -28
-49 -42 -83 -50 -26 -7 -55 -14 -64 -17 -14 -4 -18 1 -18 23 0 34 34 84 82
120 49 37 148 85 163 79 20 -7 55 -111 56 -164 2 -52 -18 -108 -47 -134 -18
-15 -24 -15 -85 -1 -79 19 -126 12 -170 -24 -61 -52 -76 -146 -39 -246 37 -99
114 -155 243 -178 37 -7 67 -18 67 -24 0 -24 -26 -35 -86 -35 -34 0 -98 -7
-141 -15 -96 -18 -93 -18 -93 1 0 9 -8 28 -19 42 -10 15 -22 38 -26 52 -19 65
-88 120 -168 135 -49 9 -70 30 -91 85 -17 43 -32 59 -140 140 -96 74 -140 171
-134 297 4 91 17 122 114 268 l65 100 -4 65 c-2 36 -14 101 -27 145 -32 112
-31 204 3 278 25 55 40 72 220 245 49 47 78 87 118 163 76 145 115 181 252
233 91 34 108 46 232 171 161 162 270 227 425 251 102 16 188 7 295 -28z m-10
-395 c42 -22 163 -139 154 -148 -7 -6 -89 22 -189 66 -63 27 -87 32 -151 32
-85 0 -148 -23 -188 -67 -19 -20 -27 -23 -38 -15 -33 28 3 76 91 121 66 34 86
38 186 35 74 -3 104 -8 135 -24z m922 -112 c29 -13 68 -40 87 -61 56 -62 64
-104 56 -290 -4 -90 12 -129 92 -215 75 -81 81 -95 76 -184 -5 -90 -28 -147
-93 -231 -25 -33 -56 -81 -68 -107 l-22 -48 -3 33 c-2 19 11 74 33 135 38 106
54 213 41 280 -4 20 -24 58 -45 85 -76 96 -90 152 -71 288 10 69 10 98 -1 147
-19 93 -84 154 -155 145 -29 -3 -29 -3 13 -26 28 -14 52 -38 70 -69 28 -47 28
-50 28 -213 0 -181 -2 -173 80 -313 32 -57 45 -162 25 -212 l-12 -30 -14 55
c-8 30 -23 68 -34 85 -53 84 -62 110 -72 209 -27 280 -98 415 -259 496 -32 17
-59 34 -59 40 0 16 83 29 170 26 62 -2 99 -9 137 -25z m-916 -34 c209 -82 319
-87 443 -23 87 45 121 46 178 3 24 -18 60 -43 80 -56 105 -64 160 -192 178
-412 9 -114 29 -174 75 -235 25 -33 33 -64 16 -64 -5 0 -28 7 -52 16 -59 21
-116 11 -162 -27 -20 -17 -37 -35 -37 -40 0 -14 33 -11 73 6 51 21 120 19 167
-5 l39 -20 -1 -148 c-2 -174 10 -219 91 -319 84 -104 121 -201 121 -316 0 -72
-17 -106 -70 -141 -45 -30 -79 -29 -112 1 -18 16 -17 17 -138 -17 -51 -15 -91
-20 -124 -16 -48 5 -48 5 -31 -14 24 -26 76 -26 183 1 45 12 85 19 88 17 2 -3
0 -17 -6 -32 -5 -15 -10 -46 -10 -70 0 -23 -7 -51 -15 -62 -9 -11 -14 -42 -15
-77 0 -65 -15 -108 -54 -154 -27 -32 -64 -49 -169 -78 -60 -16 -97 -47 -128
-107 l-16 -31 -109 -6 c-60 -3 -188 -5 -284 -5 -267 2 -516 55 -648 138 -60
37 -134 126 -175 209 -21 42 -42 79 -47 82 -6 4 -56 7 -113 8 -82 2 -112 7
-152 25 -97 44 -181 159 -130 178 10 4 15 20 15 46 0 76 68 110 123 61 26 -25
21 -40 -20 -54 -66 -21 -72 -62 -18 -116 36 -36 36 -36 98 -28 85 11 158 11
181 1 14 -7 17 -5 14 10 -5 30 -47 45 -106 38 -52 -5 -53 -5 -50 18 3 20 -1
23 -29 23 -27 0 -33 4 -33 21 0 12 10 34 22 49 l21 27 -24 19 c-13 10 -43 26
-66 35 -53 21 -55 34 -5 34 39 0 96 -30 175 -92 21 -17 41 -28 44 -24 4 4 -1
28 -10 54 -22 61 -21 90 4 131 25 42 27 107 4 152 -21 39 -21 113 -1 143 7 11
31 40 53 63 21 23 50 63 63 90 21 43 24 62 24 173 1 139 -8 113 100 276 82
122 127 333 105 488 -11 78 -6 91 59 152 72 68 149 68 323 1z m-2928 -1098
c112 -57 279 -195 527 -437 85 -82 160 -150 165 -149 6 1 9 29 7 68 -4 75 10
99 58 99 53 0 183 -119 300 -275 63 -85 87 -130 72 -139 -4 -2 -25 2 -47 10
-22 8 -67 17 -100 20 -160 14 -177 -114 -37 -289 36 -46 30 -54 -36 -49 -76 5
-137 -12 -159 -45 -11 -16 -17 -46 -17 -80 0 -61 -2 -62 -81 -37 -28 8 -64 12
-82 9 -26 -5 -43 1 -85 28 -121 78 -166 144 -160 234 3 34 49 82 87 89 51 9
72 -2 154 -85 71 -72 163 -132 179 -117 3 4 -21 33 -54 64 -104 98 -143 182
-112 242 30 58 131 75 210 35 17 -8 38 -15 46 -15 23 0 -48 58 -87 71 -52 18
-135 7 -178 -24 l-37 -26 -50 55 c-30 34 -102 91 -185 147 -225 150 -347 264
-409 382 -20 38 -29 184 -13 213 15 29 68 29 124 1z m5159 -19 c23 -28 15 -67
-27 -145 -108 -196 -280 -374 -458 -475 l-57 -32 -34 22 c-29 17 -44 20 -85
14 -37 -5 -51 -3 -51 5 0 22 335 456 400 519 113 109 262 154 312 92z m97
-269 c27 -49 -163 -252 -345 -371 -58 -37 -156 -94 -219 -125 -107 -53 -136
-75 -100 -75 32 0 264 120 360 185 99 68 101 68 178 73 l77 4 0 -28 c0 -21
-14 -42 -57 -84 -95 -92 -203 -156 -368 -221 -127 -49 -122 -46 -108 -60 7 -7
44 1 122 27 108 35 112 36 131 19 41 -37 14 -84 -77 -132 -74 -40 -143 -60
-268 -79 -128 -20 -139 -21 -145 -9 -3 5 20 18 50 30 112 41 150 80 150 153 0
32 -6 45 -27 61 -42 34 -66 35 -134 7 -58 -23 -65 -24 -76 -10 -19 26 -6 39
55 59 90 28 162 81 162 120 0 34 20 53 127 118 128 78 234 165 309 255 33 39
74 77 94 86 50 21 97 20 109 -3z m-5343 -72 c52 -56 166 -144 309 -238 237
-158 285 -203 285 -268 0 -23 -4 -44 -8 -47 -12 -7 -285 85 -373 126 -94 44
-211 122 -266 180 -44 45 -87 128 -98 190 -15 82 90 121 151 57z m4476 -104
c9 -20 8 -33 -7 -65 -18 -41 -98 -126 -150 -160 -29 -19 -30 -19 -52 2 -28 26
-29 60 -3 113 52 110 181 177 212 110z m-23 -208 c-25 -49 -89 -79 -89 -43 0
15 82 76 93 69 4 -2 2 -14 -4 -26z m-214 -43 c14 -15 29 -43 34 -63 6 -20 18
-65 27 -101 11 -40 18 -102 18 -162 0 -54 4 -98 8 -98 33 0 38 169 8 274 -26
94 -16 111 38 62 111 -101 108 -251 -11 -481 -54 -104 -182 -235 -279 -282
-79 -40 -156 -45 -218 -13 -22 11 -47 20 -55 20 -31 0 -9 -25 46 -53 47 -24
63 -27 125 -25 l72 3 0 -105 c0 -136 11 -194 82 -430 33 -107 69 -239 81 -293
17 -78 25 -97 38 -95 37 8 1 191 -89 458 -52 155 -65 216 -75 377 l-7 102 59
37 c32 21 88 66 124 101 l66 64 6 -34 c5 -33 2 -52 -27 -182 -9 -38 -16 -88
-16 -110 0 -52 33 -305 60 -465 63 -369 29 -638 -97 -769 -58 -59 -104 -70
-217 -52 -155 25 -271 119 -350 283 -82 169 -108 330 -86 538 6 63 16 156 20
205 5 50 12 212 15 360 8 363 9 365 176 436 142 61 189 116 189 219 0 60 13
90 39 90 24 0 35 -15 49 -66 16 -55 15 -97 -4 -169 -26 -103 -28 -118 -13
-113 8 2 24 33 37 69 19 53 22 79 19 149 -5 94 -18 128 -66 174 -37 35 -41 76
-10 107 27 27 42 14 68 -56 34 -90 54 -210 48 -291 -4 -68 -3 -73 13 -64 24
13 30 32 30 95 0 60 -12 127 -41 228 -26 87 -13 142 34 146 4 1 19 -11 32 -25z
m411 2 c8 -34 -18 -68 -76 -100 -100 -55 -117 -53 -154 20 -13 28 -14 34 -1
44 31 25 132 60 177 60 42 0 48 -3 54 -24z m-3240 -11 c27 -14 70 -43 96 -66
39 -33 47 -45 42 -64 -7 -27 10 -122 32 -178 8 -20 14 -39 14 -41 0 -2 -20 -9
-44 -15 -68 -17 -91 -46 -101 -128 l-7 -50 -67 19 c-75 21 -128 18 -177 -12
l-31 -20 -27 59 c-30 66 -34 132 -10 152 27 22 123 -3 154 -41 14 -16 37 -45
52 -63 36 -44 44 -29 19 38 -23 62 -27 125 -9 143 22 22 90 13 145 -17 66 -37
82 -21 27 27 -44 38 -116 74 -142 71 -40 -4 -49 2 -60 40 -16 50 -15 144 0
159 18 18 38 15 94 -13z m-1350 -43 c68 -43 183 -89 263 -107 36 -8 76 -17 89
-20 l23 -6 -31 -35 c-17 -20 -33 -49 -37 -65 -3 -16 -10 -33 -17 -37 -36 -29
-240 -19 -360 18 -49 15 -78 32 -107 61 -37 37 -39 42 -39 102 0 96 33 130
120 124 29 -3 64 -15 96 -35z m1702 -76 c6 -3 27 -35 46 -70 20 -36 48 -73 63
-84 14 -10 23 -24 19 -30 -3 -5 -36 -27 -74 -47 -37 -20 -77 -46 -89 -57 -12
-11 -29 -18 -37 -15 -26 10 -96 167 -99 222 l-2 50 45 0 c33 1 44 4 42 14 -7
30 6 39 41 31 19 -4 39 -10 45 -14z m-547 -45 c30 -11 63 -27 73 -34 17 -13
17 -15 2 -45 -9 -17 -16 -42 -16 -57 0 -30 2 -29 -43 -10 -50 21 -82 19 -134
-7 l-45 -22 -18 24 c-10 14 -26 49 -34 79 -14 50 -14 57 0 79 15 23 20 24 88
20 39 -3 96 -15 127 -27z m3454 -75 c15 -22 15 -27 1 -54 -9 -17 -29 -40 -45
-52 -31 -22 -141 -63 -148 -56 -8 7 8 113 21 137 13 26 65 47 118 48 29 1 41
-4 53 -23z m-3050 -180 c19 -8 35 -21 35 -28 0 -14 -23 -51 -52 -82 -10 -11
-38 -50 -63 -88 -26 -37 -50 -68 -55 -68 -20 0 -23 51 -4 71 15 16 18 34 15
90 -4 112 32 143 124 105z m-585 -51 c16 -8 50 -34 77 -56 47 -42 48 -43 45
-95 -3 -37 2 -66 17 -100 12 -26 19 -49 16 -52 -3 -3 -28 2 -56 11 -68 22
-117 21 -156 -3 -61 -37 -52 -102 22 -172 43 -42 143 -103 153 -94 3 3 -27 39
-66 79 -98 101 -107 157 -25 157 39 0 121 -19 128 -30 2 -3 -2 -26 -9 -51 -16
-55 -7 -91 34 -141 49 -59 66 -49 30 15 -44 78 -37 119 24 141 23 8 90 -9 105
-27 10 -13 -7 -53 -81 -192 -9 -16 -32 -64 -52 -105 -66 -140 -180 -229 -307
-238 -63 -4 -72 -2 -104 22 -43 33 -45 62 -7 78 98 39 194 92 238 129 46 39
84 86 84 103 0 15 -29 4 -51 -20 -37 -40 -137 -108 -204 -139 -49 -23 -78 -29
-155 -33 -107 -5 -124 3 -118 55 2 23 14 34 69 63 94 49 229 142 229 157 0 19
-12 16 -56 -16 -22 -16 -76 -47 -120 -69 -221 -111 -384 -91 -384 48 0 27 3
29 70 44 97 22 151 45 181 77 l26 28 62 -20 c67 -20 176 -26 186 -9 8 12 -23
25 -99 39 -89 16 -142 46 -171 95 -29 50 -32 87 -8 127 25 42 74 55 153 41 69
-13 84 -22 107 -66 20 -40 44 -67 53 -61 4 3 -4 35 -17 72 -14 38 -26 92 -27
121 -1 47 2 57 27 78 33 28 92 32 137 9z m3468 -11 c32 -22 30 -71 -4 -84 -38
-15 -84 -13 -84 4 0 23 29 84 42 89 20 8 22 8 46 -9z m245 -1 c8 -10 18 -34
22 -54 6 -32 3 -41 -23 -70 -30 -33 -32 -34 -111 -34 -62 0 -84 4 -97 17 -16
16 -15 19 10 48 18 22 26 43 26 71 l0 39 78 0 c63 0 82 -4 95 -17z m-3322 -93
c11 -6 14 -19 11 -45 -3 -22 3 -52 13 -74 17 -38 17 -39 -14 -100 -22 -42 -37
-61 -50 -61 -112 0 -231 193 -159 259 38 36 148 47 199 21z m3072 -64 c34 -19
79 -38 100 -42 44 -8 52 -20 38 -57 -15 -40 -44 -51 -83 -31 -40 20 -148 106
-148 117 0 5 -4 5 -10 2 -14 -8 6 -40 63 -102 26 -28 47 -56 47 -61 0 -15 -29
-35 -42 -29 -14 5 -108 168 -108 186 0 19 39 51 61 51 11 0 48 -15 82 -34z"/>
<path d="M5395 8596 c-44 -12 -102 -34 -130 -49 -75 -41 -125 -127 -75 -127
11 0 20 4 20 9 0 5 15 23 33 40 63 62 188 101 327 101 118 0 188 -27 350 -135
103 -69 141 -89 176 -93 54 -6 90 11 111 52 14 27 14 28 -3 21 -97 -41 -115
-38 -217 32 -143 98 -220 141 -283 157 -89 22 -211 19 -309 -8z"/>
<path d="M4976 8187 c-9 -12 -19 -66 -25 -123 -15 -168 -54 -217 -246 -319
-226 -119 -284 -204 -314 -458 -14 -116 -41 -173 -134 -282 -42 -49 -75 -91
-72 -93 9 -9 106 71 144 120 62 76 91 149 122 300 50 244 91 299 279 368 157
58 190 80 228 155 21 42 26 69 31 175 4 69 12 135 19 147 16 28 15 33 -3 33
-8 0 -21 -10 -29 -23z"/>
<path d="M4515 7908 c-73 -40 -106 -99 -140 -246 -47 -204 -69 -267 -108 -309
-17 -19 -18 -23 -5 -23 20 0 81 68 107 118 21 42 40 111 66 252 30 155 46 170
180 170 66 0 85 3 85 14 0 31 -140 49 -185 24z"/>
<path d="M4235 6640 c-15 -24 10 -50 80 -84 61 -29 81 -44 105 -82 16 -25 32
-59 35 -75 8 -34 24 -47 36 -28 15 23 10 53 -17 107 -27 54 -93 108 -146 119
-15 3 -37 16 -49 29 -25 26 -35 29 -44 14z"/>
<path d="M4650 6175 c0 -12 28 -35 44 -35 11 0 6 21 -8 36 -19 18 -36 18 -36
-1z"/>
<path d="M5843 7415 c-150 -41 -280 -159 -375 -342 -38 -74 -46 -103 -29 -103
5 0 45 55 89 123 44 67 97 139 118 159 71 68 204 118 312 118 61 0 94 -15 141
-63 56 -59 86 -17 35 50 -53 70 -163 92 -291 58z"/>
<path d="M6400 7221 c-5 -11 -10 -45 -10 -76 0 -103 63 -189 159 -215 43 -11
43 -12 37 -48 -3 -20 -9 -55 -12 -77 l-6 -40 47 -13 c25 -7 51 -10 56 -7 18
12 8 34 -26 54 -31 18 -34 24 -29 53 12 72 15 78 39 84 38 9 46 25 32 66 l-13
36 -31 -28 c-39 -35 -69 -30 -89 14 -13 26 -13 37 -2 71 l14 40 51 -2 c48 -2
51 0 58 25 16 66 -91 84 -189 33 l-56 -30 0 40 c0 42 -13 51 -30 20z m131 -90
c-13 -24 -14 -85 -2 -129 l10 -32 -30 17 c-34 20 -69 71 -69 100 0 23 34 58
70 71 29 11 36 2 21 -27z"/>
<path d="M5905 7182 c-62 -22 -142 -73 -231 -148 -92 -76 -89 -73 -81 -80 3
-3 27 9 54 27 197 135 210 141 196 92 -5 -16 -7 -58 -6 -95 l1 -68 -78 0 c-43
0 -82 -4 -85 -10 -7 -12 13 -16 145 -30 115 -11 191 -3 219 25 14 15 14 17 0
28 -8 7 -19 21 -23 32 -7 19 -9 18 -34 -11 -36 -42 -56 -47 -86 -23 -22 17
-26 29 -26 73 0 54 20 96 46 96 8 0 28 -7 44 -15 37 -19 50 -2 21 29 -28 30
-27 36 9 36 23 0 30 4 30 20 0 19 -27 40 -52 40 -7 -1 -35 -9 -63 -18z"/>
<path d="M6411 6785 c-30 -26 -40 -58 -22 -69 11 -7 37 22 51 58 15 39 8 42
-29 11z"/>
<path d="M6207 6778 c-10 -15 -17 -39 -15 -54 4 -35 48 -69 77 -59 29 9 26 21
-8 33 -27 9 -30 16 -33 59 l-3 48 -18 -27z"/>
<path d="M6565 6636 c-80 -15 -105 -24 -105 -38 0 -7 24 -8 68 -3 91 9 144 23
139 38 -5 17 -21 17 -102 3z"/>
<path d="M6610 6558 c-14 -5 -42 -10 -62 -9 -32 1 -45 -6 -84 -45 -38 -36 -45
-48 -33 -55 28 -17 104 -22 163 -10 61 13 156 55 156 69 0 13 -80 62 -98 61
-10 0 -28 -5 -42 -11z"/>
<path d="M6562 6217 c-21 -22 -29 -47 -16 -47 3 0 17 9 31 20 17 13 41 20 70
20 63 0 52 24 -13 28 -41 2 -53 -1 -72 -21z"/>
<path d="M7930 5420 c-10 -18 -7 -31 16 -78 35 -71 212 -252 334 -341 104 -76
167 -149 224 -261 51 -99 70 -160 61 -201 -7 -33 -22 -36 -70 -14 -32 16 -32
17 -38 98 -3 45 -12 98 -21 118 -16 39 -68 89 -91 89 -28 0 -64 -20 -76 -41
-20 -38 -13 -123 15 -185 14 -31 23 -60 20 -66 -3 -5 12 -37 35 -71 55 -86
125 -267 103 -267 -11 0 -118 119 -195 218 -58 73 -83 91 -68 50 8 -21 -12
-84 -31 -98 -29 -22 -37 -139 -13 -197 9 -20 14 -42 11 -48 -5 -13 8 -59 59
-224 33 -105 38 -157 13 -149 -5 2 -40 60 -77 128 -69 129 -98 159 -141 145
-30 -10 -50 -57 -50 -122 l-1 -58 -24 30 c-24 29 -29 28 -25 -8 1 -10 -6 -29
-14 -42 -9 -13 -16 -29 -16 -35 0 -6 32 -60 70 -120 39 -60 73 -116 76 -124 3
-7 -8 -35 -25 -61 -27 -42 -68 -157 -101 -282 -7 -28 -16 -43 -26 -43 -12 0
-14 5 -8 18 4 9 9 67 12 127 5 128 -12 208 -59 285 l-30 48 23 64 c32 93 31
187 -5 255 -90 174 -261 216 -466 116 -76 -36 -175 -139 -212 -217 -42 -91
-61 -191 -49 -257 28 -145 191 -262 305 -219 45 17 25 34 -37 31 -95 -4 -173
44 -214 134 -58 123 -3 309 124 426 56 51 159 109 195 109 14 0 17 -9 18 -52
0 -29 4 -71 8 -93 l8 -40 12 30 c21 50 43 144 36 155 -8 13 49 13 96 0 47 -13
115 -72 140 -122 30 -59 35 -136 14 -213 -9 -36 -21 -65 -26 -65 -11 0 -55 75
-75 130 -9 25 -18 82 -20 128 -2 46 -6 88 -9 93 -26 41 -85 -69 -106 -196 -13
-86 -8 -262 12 -338 l12 -49 -131 -124 c-110 -104 -137 -136 -163 -191 -35
-74 -42 -161 -16 -221 24 -58 82 -110 131 -117 46 -7 119 17 159 53 87 77 118
249 82 452 -23 129 -21 140 26 185 l40 40 18 -22 c10 -12 38 -74 61 -137 36
-98 42 -121 36 -160 -7 -43 -11 -48 -55 -71 -54 -27 -69 -51 -47 -73 20 -20
58 -9 93 28 27 29 63 40 63 20 0 -19 -62 -174 -88 -220 -86 -152 -190 -237
-333 -275 -188 -50 -384 46 -472 232 -29 63 -32 76 -32 168 0 97 1 102 37 165
37 66 84 118 126 139 28 15 29 31 1 31 -30 0 -122 -92 -157 -158 -17 -31 -36
-87 -43 -123 -32 -174 86 -375 271 -463 60 -29 73 -31 170 -31 100 1 109 2
182 37 161 76 259 192 339 403 41 108 39 106 131 123 120 22 235 102 275 190
34 72 30 168 -7 208 -35 37 -73 54 -118 54 -38 0 -39 0 -84 87 -66 125 -97
247 -65 256 5 1 33 -45 63 -103 59 -115 92 -150 141 -150 25 0 36 7 53 36 29
46 24 91 -24 233 -20 58 -33 107 -31 110 3 2 15 -5 28 -17 29 -27 88 -52 125
-52 39 0 82 35 82 66 0 13 4 24 9 24 20 0 29 -29 33 -105 6 -99 38 -191 78
-227 42 -39 96 -38 133 0 79 83 45 187 -107 329 -69 65 -74 72 -96 148 -13 44
-38 113 -57 154 -39 87 -41 98 -10 79 38 -25 86 -30 124 -12 90 43 84 166 -17
334 -27 46 -48 85 -46 87 2 3 25 -3 50 -11 58 -20 79 -20 115 -1 70 36 52 140
-42 242 -47 51 -150 133 -166 133 -24 0 -8 -20 68 -84 85 -72 141 -144 141
-184 0 -23 -3 -24 -40 -19 -21 3 -80 28 -130 57 -74 43 -94 59 -112 93 -57
113 -162 231 -274 308 -63 43 -136 52 -154 19z m127 -76 c37 -21 145 -106 178
-139 25 -25 67 -86 63 -91 -8 -7 -172 105 -253 173 -73 62 -97 101 -53 88 12
-4 42 -18 65 -31z m290 -616 c39 -41 65 -93 61 -120 -3 -19 -8 -16 -49 25 -53
55 -74 90 -66 111 9 23 19 20 54 -16z m-96 -447 c31 -32 75 -83 97 -114 91
-122 52 -149 -58 -39 -76 76 -130 154 -130 189 0 39 31 27 91 -36z m315 -314
c77 -97 101 -168 69 -201 -48 -47 -119 61 -132 201 -7 77 2 77 63 0z m-942
-302 c10 -32 24 -69 33 -82 15 -23 15 -26 -23 -64 l-39 -39 -13 37 c-16 44
-21 276 -7 338 8 39 9 38 21 -46 6 -47 19 -112 28 -144z m607 -146 c24 -26 29
-39 29 -83 -1 -69 -28 -124 -86 -174 -73 -63 -254 -127 -254 -90 0 26 61 222
82 265 33 66 42 70 68 28 25 -40 39 -39 32 3 -2 18 2 33 12 41 9 8 16 20 16
27 0 9 12 14 36 14 27 0 43 -7 65 -31z m-642 -229 c25 -221 9 -329 -57 -399
-64 -67 -120 -64 -186 9 -58 65 -58 177 1 275 26 43 201 214 219 215 7 0 16
-40 23 -100z"/>
<path d="M2203 5240 c-338 -61 -468 -356 -284 -645 14 -22 61 -89 104 -150 43
-60 92 -138 108 -172 63 -132 61 -325 -3 -399 -26 -29 -36 -34 -75 -34 -60 0
-53 -24 8 -28 87 -6 139 67 146 208 9 159 -26 253 -175 466 -113 163 -149 233
-161 316 -17 119 11 201 99 288 85 86 175 120 318 120 187 0 364 -111 446
-282 35 -74 79 -268 64 -284 -4 -3 -21 5 -38 20 -44 36 -145 91 -209 111 -104
34 -232 17 -307 -40 -33 -25 -114 -175 -114 -210 1 -30 38 -107 68 -138 31
-33 141 -97 165 -97 31 0 17 18 -37 49 -100 56 -156 122 -156 183 0 18 7 12
30 -28 35 -62 81 -101 165 -143 110 -53 196 -61 266 -25 40 20 52 41 51 86 -5
123 -116 218 -302 259 l-85 19 71 -4 c124 -8 231 -48 377 -142 37 -24 67 -49
67 -56 1 -7 7 -60 14 -118 21 -169 74 -260 151 -260 121 0 86 199 -72 409 -43
56 -66 97 -70 121 -26 200 -46 271 -102 357 -112 173 -337 276 -528 243z m226
-619 c84 -26 147 -65 181 -113 34 -46 39 -92 13 -120 -45 -50 -255 1 -351 86
-35 31 -65 94 -58 122 11 44 115 56 215 25z m494 -236 c75 -80 113 -177 87
-224 -13 -25 -61 -28 -84 -5 -37 36 -63 117 -72 224 -7 73 -7 75 12 60 10 -8
36 -33 57 -55z"/>
<path d="M2465 4126 c-51 -26 -85 -68 -85 -105 0 -30 55 -87 90 -95 27 -5 30
-8 20 -25 -5 -11 -10 -34 -10 -51 0 -57 62 -98 200 -133 175 -44 184 -34 -75
-88 -126 -27 -259 -52 -295 -55 -121 -12 -190 27 -190 107 0 29 6 42 23 53 35
23 75 30 92 16 21 -17 8 -32 -16 -20 -15 8 -21 7 -25 -4 -10 -27 1 -50 34 -69
33 -20 34 -20 60 0 65 48 18 133 -74 133 -125 0 -173 -120 -82 -207 59 -56 93
-67 214 -71 122 -4 243 10 489 59 l150 30 28 -31 c27 -31 65 -37 59 -11 -2 9
3 11 15 6 71 -28 254 -42 327 -25 81 18 122 83 79 123 -43 38 -136 50 -341 44
l-193 -5 -15 24 c-9 13 -25 24 -36 24 -20 0 -20 -1 -1 -47 6 -14 -203 37 -299
73 -67 25 -94 46 -84 62 3 5 91 13 196 17 177 7 220 14 169 30 -11 4 -24 16
-30 28 -5 12 -13 29 -18 37 -6 8 -12 27 -16 42 -7 37 -58 93 -113 125 -35 21
-61 27 -121 30 -66 4 -82 1 -126 -21z m256 -96 c44 -12 85 -48 70 -63 -13 -13
-182 -21 -264 -13 -77 9 -107 26 -91 53 6 10 22 21 35 24 38 11 210 10 250 -1z
m739 -394 c0 -39 -156 -64 -284 -46 -134 19 -126 27 54 49 114 15 230 13 230
-3z"/>
<path d="M3025 3431 c-130 -34 -184 -136 -114 -216 44 -50 131 -75 260 -75 54
0 99 -3 99 -7 0 -5 -21 -19 -47 -33 -54 -29 -88 -78 -79 -115 8 -31 76 -71
136 -79 25 -3 81 0 125 8 44 8 82 12 84 10 3 -2 -5 -13 -17 -24 -76 -71 -64
-168 27 -206 64 -27 253 -12 369 30 27 10 51 12 65 7 12 -4 28 -6 35 -4 32 12
5 -17 -59 -62 -87 -61 -113 -106 -93 -160 10 -26 59 -45 119 -45 53 0 166 31
192 52 27 22 32 1 8 -32 -39 -56 -42 -93 -10 -126 24 -24 32 -26 81 -21 38 4
91 23 169 61 63 30 115 53 115 50 0 -3 -10 -24 -22 -47 -30 -58 -31 -139 -2
-168 27 -26 100 -30 135 -6 28 20 39 21 39 4 0 -8 11 -24 24 -36 45 -42 123
-26 226 47 21 15 48 34 60 42 60 40 120 93 120 106 0 21 -8 18 -54 -19 -52
-42 -168 -117 -223 -146 -49 -24 -83 -27 -83 -7 0 8 52 78 115 155 115 139
135 173 94 151 -24 -13 -95 -4 -124 16 -32 23 -132 17 -192 -10 -28 -13 -54
-22 -57 -19 -3 3 -69 -26 -148 -65 -79 -39 -158 -73 -175 -77 -29 -6 -33 -4
-33 15 0 24 17 41 170 183 94 88 95 88 60 86 -19 -2 -47 1 -62 5 -21 6 -35 3
-58 -14 -48 -34 -224 -118 -286 -136 -67 -19 -127 -12 -122 14 2 9 48 48 103
85 135 91 152 109 139 144 -8 24 -16 29 -56 33 -39 4 -46 8 -38 20 14 22 12
28 -15 46 -23 15 -27 14 -62 -6 -21 -11 -45 -33 -54 -48 -19 -34 -92 -59 -219
-74 -124 -15 -210 4 -210 47 0 3 14 18 31 36 21 21 35 29 47 24 62 -27 95 -34
154 -35 81 0 111 12 133 54 39 72 -34 130 -166 132 -41 0 -79 3 -85 6 -5 4
-54 -5 -109 -18 -153 -37 -265 -30 -265 16 0 14 13 26 43 39 65 30 227 91 242
91 8 0 28 -12 45 -26 23 -20 34 -24 42 -16 9 9 6 18 -10 35 -12 13 -22 26 -22
29 0 4 40 21 88 38 99 35 120 46 109 56 -4 4 -49 -2 -101 -14 -131 -30 -173
-29 -216 6 -62 51 -102 51 -53 0 14 -15 23 -31 19 -35 -4 -5 -83 -8 -174 -8
-139 0 -175 3 -217 19 -55 21 -85 42 -85 62 0 7 16 22 36 34 l35 22 80 -41
c99 -50 170 -56 215 -18 32 28 35 78 7 109 -49 55 -195 91 -278 69z m243 -93
c5 -26 -60 -40 -133 -28 -33 5 -61 10 -62 10 -2 0 -3 4 -3 8 0 15 73 30 135
28 48 -1 60 -4 63 -18z m532 -427 c-1 -18 -22 -34 -65 -46 -54 -17 -121 -20
-129 -6 -6 8 91 56 129 63 25 5 65 -2 65 -11z m186 -117 c-30 -21 -44 -16 -17
7 13 11 27 17 30 13 3 -3 -3 -12 -13 -20z m801 -301 c5 -13 -126 -173 -181
-220 -40 -36 -86 -44 -86 -16 0 55 125 208 194 239 35 16 68 14 73 -3z"/>
<path d="M6526 3143 c-63 -67 -146 -316 -177 -528 -21 -145 -152 -357 -253
-409 -42 -22 -56 -11 -56 43 0 45 1 47 51 75 92 51 149 121 149 182 0 34 -42
74 -78 74 -39 0 -119 -54 -157 -107 -16 -23 -37 -42 -45 -42 -9 -1 -39 -31
-67 -68 -75 -100 -103 -133 -151 -181 -48 -47 -79 -52 -74 -12 5 45 94 255
116 273 11 10 40 35 64 54 23 20 71 72 107 115 107 135 151 251 109 293 -52
52 -184 -82 -306 -312 l-57 -108 -63 0 c-107 -1 -197 -65 -248 -176 -48 -107
-3 -219 89 -219 25 0 41 8 65 34 l32 33 33 -29 c64 -57 120 -26 251 141 l75
95 6 -73 c5 -67 8 -77 37 -102 35 -31 79 -37 127 -19 40 15 124 108 175 194
25 41 48 76 53 76 4 0 7 -12 7 -28 0 -69 50 -152 92 -152 47 0 102 47 137 116
43 87 78 264 52 264 -5 0 -19 -43 -31 -96 -26 -115 -76 -218 -107 -222 -31 -5
-38 26 -35 161 l2 119 35 48 c70 95 128 254 140 385 11 109 -43 168 -99 108z
m28 -129 c-1 -92 -21 -184 -56 -266 -28 -66 -42 -62 -34 10 10 87 45 283 57
320 20 60 34 31 33 -64z m-538 -158 c8 -22 -32 -124 -75 -190 -42 -64 -121
-148 -121 -129 0 18 95 212 135 276 37 58 51 68 61 43z m141 -332 c11 -30 -76
-172 -97 -159 -15 9 27 124 57 157 20 22 32 23 40 2z m-496 -104 c-8 -56 -129
-273 -163 -291 -87 -47 3 227 102 308 8 7 26 12 40 10 20 -2 24 -7 21 -27z"/>
<path d="M4473 2803 c-57 -31 -103 -60 -103 -65 0 -5 7 -11 16 -15 21 -8 201
15 230 29 30 14 45 49 31 74 -26 48 -51 45 -174 -23z"/>
</g>
</svg>
